<svg width="100" height="71" viewBox="0 0 100 71" fill="none" xmlns="http://www.w3.org/2000/svg">
<path fill-rule="evenodd" clip-rule="evenodd" d="M94.461 70.4529H5.54765C2.48287 70.4529 0 68.0447 0 65.072V5.59194C0 2.6172 2.48287 0.208984 5.54765 0.208984H94.461C97.5171 0.208984 100 2.6172 100 5.59194V65.072C100 68.0447 97.5171 70.4529 94.461 70.4529Z" fill="url(#paint0_linear)"/>
<mask id="mask0" mask-type="alpha" maskUnits="userSpaceOnUse" x="67" y="9" width="25" height="18">
<path fill-rule="evenodd" clip-rule="evenodd" d="M79.3436 9.21484H67.6471V26.5059H79.3436H91.0401V9.21484H79.3436Z" fill="white"/>
</mask>
<g mask="url(#mask0)">
<path fill-rule="evenodd" clip-rule="evenodd" d="M88.1159 26.5059H70.5714C68.9563 26.5059 67.6471 25.2158 67.6471 23.6238V12.0969C67.6471 10.5051 68.9563 9.21484 70.5714 9.21484H88.1159C89.7309 9.21484 91.0401 10.5051 91.0401 12.0969V23.6238C91.0401 25.2158 89.7309 26.5059 88.1159 26.5059Z" fill="url(#paint1_linear)"/>
</g>
<mask id="mask1" mask-type="alpha" maskUnits="userSpaceOnUse" x="73" y="9" width="19" height="18">
<path fill-rule="evenodd" clip-rule="evenodd" d="M82.2678 26.5059H91.0401V9.21484H82.2678H73.4956V26.5059H82.2678Z" fill="white"/>
</mask>
<g mask="url(#mask1)">
<path fill-rule="evenodd" clip-rule="evenodd" d="M91.0401 19.3014H76.4199V16.4193H91.0401V13.5373H76.4199V9.21484H73.4956V26.5059H76.4199V22.1834H91.0401V19.3014Z" fill="#FF9500"/>
</g>
<path d="M8.82349 48.7569H23.5294" stroke="#F0F0F0" stroke-width="2.4" stroke-linecap="round"/>
<path d="M8.82349 57.5382H35.2941" stroke="#F0F0F0" stroke-width="2.4" stroke-linecap="round"/>
<path d="M29.4117 48.7569H44.1176" stroke="#F0F0F0" stroke-width="2.4" stroke-linecap="round"/>
<path d="M50 48.7569H64.7059" stroke="#F0F0F0" stroke-width="2.4" stroke-linecap="round"/>
<path d="M70.5883 48.7569H85.2941" stroke="#F0F0F0" stroke-width="2.4" stroke-linecap="round"/>
<defs>
<linearGradient id="paint0_linear" x1="-50" y1="35.3309" x2="16.0793" y2="129.402" gradientUnits="userSpaceOnUse">
<stop stop-color="#3ACBFF"/>
<stop offset="1" stop-color="#048BBB"/>
</linearGradient>
<linearGradient id="paint1_linear" x1="56.7433" y1="19.0323" x2="73.6204" y2="40.3178" gradientUnits="userSpaceOnUse">
<stop stop-color="#FFEA00"/>
<stop offset="1" stop-color="#FFD100"/>
</linearGradient>
</defs>
</svg>
